<mxfile host="app.diagrams.net" modified="2021-04-27T18:40:01.779Z" agent="5.0 (Windows NT 10.0; Win64; x64) AppleWebKit/537.36 (KHTML, like Gecko) Chrome/90.0.4430.85 Safari/537.36" etag="3LsIpXizunv_x0WKOyz4" version="14.6.6" type="github">
  <diagram name="Page-1" id="bd83a815-5ea8-2e97-e5ec-87c9f400f2fa">
    <mxGraphModel dx="870" dy="538" grid="1" gridSize="10" guides="1" tooltips="1" connect="1" arrows="1" fold="1" page="1" pageScale="1.5" pageWidth="1169" pageHeight="826" background="#ffffff" math="0" shadow="0">
      <root>
        <mxCell id="0" style=";html=1;" />
        <mxCell id="1" style=";html=1;" parent="0" />
        <mxCell id="MFCvbXzC6i8i3z5e1wY2-20" value="" style="group" parent="1" vertex="1" connectable="0">
          <mxGeometry x="220" y="420" width="700" height="120" as="geometry" />
        </mxCell>
        <mxCell id="MFCvbXzC6i8i3z5e1wY2-4" value="Kyle" style="rhombus;whiteSpace=wrap;html=1;strokeWidth=2;fillWeight=-1;hachureGap=8;fillStyle=cross-hatch;fillColor=#dae8fc;sketch=1;strokeColor=#6c8ebf;fontFamily=Courier New;fontSize=25;fontStyle=1" parent="MFCvbXzC6i8i3z5e1wY2-20" vertex="1">
          <mxGeometry width="170" height="120" as="geometry" />
        </mxCell>
        <mxCell id="MFCvbXzC6i8i3z5e1wY2-19" value="&lt;span id=&quot;docs-internal-guid-14715bb9-7fff-fad0-37b8-1680ecc5287a&quot;&gt;&lt;span style=&quot;font-size: 11pt ; font-family: &amp;#34;arial&amp;#34; ; background-color: transparent ; vertical-align: baseline&quot;&gt;Helped with meal summary modal window (Angular);&amp;nbsp;&lt;/span&gt;&lt;/span&gt;&lt;span id=&quot;docs-internal-guid-47588693-7fff-474b-c383-f6b14b442eab&quot;&gt;&lt;span style=&quot;font-size: 11pt ; font-family: &amp;#34;arial&amp;#34; ; background-color: transparent ; vertical-align: baseline&quot;&gt;Helped initialise services and connect them to database (Express);&amp;nbsp;&lt;/span&gt;&lt;/span&gt;&lt;span id=&quot;docs-internal-guid-76285264-7fff-8467-f98a-775b0c2b26df&quot;&gt;&lt;span style=&quot;font-size: 11pt ; font-family: &amp;#34;arial&amp;#34; ; background-color: transparent ; vertical-align: baseline&quot;&gt;Added some improvements to file for improved build time (Docker)&lt;/span&gt;&lt;/span&gt;" style="rounded=1;whiteSpace=wrap;html=1;strokeWidth=2;fillWeight=4;hachureGap=8;hachureAngle=45;sketch=1;fontFamily=Courier New;fontSize=25;fillStyle=solid;" parent="MFCvbXzC6i8i3z5e1wY2-20" vertex="1">
          <mxGeometry x="170" y="10" width="530" height="100" as="geometry" />
        </mxCell>
        <mxCell id="MFCvbXzC6i8i3z5e1wY2-21" value="" style="group" parent="1" vertex="1" connectable="0">
          <mxGeometry x="220" y="290" width="700" height="120" as="geometry" />
        </mxCell>
        <mxCell id="MFCvbXzC6i8i3z5e1wY2-22" value="Angela" style="rhombus;whiteSpace=wrap;html=1;strokeWidth=2;fillWeight=-1;hachureGap=8;fillStyle=cross-hatch;fillColor=#dae8fc;sketch=1;strokeColor=#6c8ebf;fontFamily=Courier New;fontSize=25;fontStyle=1" parent="MFCvbXzC6i8i3z5e1wY2-21" vertex="1">
          <mxGeometry width="170" height="120" as="geometry" />
        </mxCell>
        <mxCell id="MFCvbXzC6i8i3z5e1wY2-23" value="&lt;span id=&quot;docs-internal-guid-55cf51fe-7fff-0f3c-1b51-0f25e11b8d9c&quot;&gt;&lt;span style=&quot;font-size: 11pt ; font-family: &amp;#34;arial&amp;#34; ; background-color: transparent ; vertical-align: baseline&quot;&gt;Helped with quiz page logic (Angular);&amp;nbsp;&lt;span id=&quot;docs-internal-guid-f27823e3-7fff-ded0-3d35-f19b5ccfe4a0&quot;&gt;&lt;span style=&quot;font-size: 11pt ; background-color: transparent ; vertical-align: baseline&quot;&gt;handled schema creation, database population script, docker database seeding (Mongo);&amp;nbsp;&lt;/span&gt;&lt;/span&gt;&lt;span id=&quot;docs-internal-guid-c085d38c-7fff-3500-46eb-7625acbe48f7&quot;&gt;&lt;span style=&quot;font-size: 11pt ; background-color: transparent ; vertical-align: baseline&quot;&gt;Handled setting up server connections for DB, database population scripts(Node);&amp;nbsp;&lt;/span&gt;&lt;/span&gt;&lt;span id=&quot;docs-internal-guid-3888b3c0-7fff-6b13-a031-0857b978a1e6&quot;&gt;&lt;span style=&quot;font-size: 11pt ; background-color: transparent ; vertical-align: baseline&quot;&gt;Helped initialise services and connect them to database (Express);&amp;nbsp;&lt;/span&gt;&lt;/span&gt;&lt;span id=&quot;docs-internal-guid-707253e9-7fff-a60e-3a78-14acfb67ed97&quot;&gt;&lt;span style=&quot;font-size: 11pt ; background-color: transparent ; vertical-align: baseline&quot;&gt;Handled seeding the database and various bug fixes (Docker)&lt;/span&gt;&lt;/span&gt;&lt;br&gt;&lt;/span&gt;&lt;/span&gt;" style="rounded=1;whiteSpace=wrap;html=1;strokeWidth=2;fillWeight=4;hachureGap=8;hachureAngle=45;sketch=1;fontFamily=Courier New;fontSize=25;fillStyle=solid;" parent="MFCvbXzC6i8i3z5e1wY2-21" vertex="1">
          <mxGeometry x="170" y="10" width="530" height="100" as="geometry" />
        </mxCell>
        <mxCell id="MFCvbXzC6i8i3z5e1wY2-24" value="" style="group" parent="1" vertex="1" connectable="0">
          <mxGeometry x="220" y="550" width="700" height="120" as="geometry" />
        </mxCell>
        <mxCell id="MFCvbXzC6i8i3z5e1wY2-25" value="Olivia" style="rhombus;whiteSpace=wrap;html=1;strokeWidth=2;fillWeight=-1;hachureGap=8;fillStyle=cross-hatch;fillColor=#dae8fc;sketch=1;strokeColor=#6c8ebf;fontFamily=Courier New;fontSize=25;fontStyle=1" parent="MFCvbXzC6i8i3z5e1wY2-24" vertex="1">
          <mxGeometry width="170" height="120" as="geometry" />
        </mxCell>
        <mxCell id="MFCvbXzC6i8i3z5e1wY2-26" value="&lt;span id=&quot;docs-internal-guid-79654713-7fff-186b-9401-507fa94f92d3&quot;&gt;&lt;span style=&quot;font-size: 11pt ; font-family: &amp;#34;arial&amp;#34; ; background-color: transparent ; vertical-align: baseline&quot;&gt;Helped implement share funcitonality (Angular);&amp;nbsp;&lt;/span&gt;&lt;/span&gt;&lt;span id=&quot;docs-internal-guid-da6f391d-7fff-7575-0014-ab380b4b7c00&quot;&gt;&lt;span style=&quot;font-size: 11pt ; font-family: &amp;#34;arial&amp;#34; ; background-color: transparent ; vertical-align: baseline&quot;&gt;handled initial prototype creation and user interviews. handled CSS and page styling(UI/UX);&lt;/span&gt;&lt;/span&gt;" style="rounded=1;whiteSpace=wrap;html=1;strokeWidth=2;fillWeight=4;hachureGap=8;hachureAngle=45;sketch=1;fontFamily=Courier New;fontSize=25;fillStyle=solid;" parent="MFCvbXzC6i8i3z5e1wY2-24" vertex="1">
          <mxGeometry x="170" y="10" width="530" height="100" as="geometry" />
        </mxCell>
        <mxCell id="MFCvbXzC6i8i3z5e1wY2-27" value="" style="group" parent="1" vertex="1" connectable="0">
          <mxGeometry x="220" y="680" width="700" height="120" as="geometry" />
        </mxCell>
        <mxCell id="MFCvbXzC6i8i3z5e1wY2-28" value="Zack" style="rhombus;whiteSpace=wrap;html=1;strokeWidth=2;fillWeight=-1;hachureGap=8;fillStyle=cross-hatch;fillColor=#dae8fc;sketch=1;strokeColor=#6c8ebf;fontFamily=Courier New;fontSize=25;fontStyle=1" parent="MFCvbXzC6i8i3z5e1wY2-27" vertex="1">
          <mxGeometry width="170" height="120" as="geometry" />
        </mxCell>
        <mxCell id="MFCvbXzC6i8i3z5e1wY2-29" value="&lt;span id=&quot;docs-internal-guid-389b18a0-7fff-ca22-27a1-57a6df8886c2&quot;&gt;&lt;span style=&quot;font-size: 11pt ; font-family: &amp;#34;arial&amp;#34; ; background-color: transparent ; vertical-align: baseline&quot;&gt;Helped implement share functionality and progress bars and meal summary modal (Angular);&amp;nbsp;&lt;/span&gt;&lt;/span&gt;&lt;span id=&quot;docs-internal-guid-0ba21306-7fff-2b8e-d1ad-478b831bbdbb&quot;&gt;&lt;span style=&quot;font-size: 11pt ; font-family: &amp;#34;arial&amp;#34; ; background-color: transparent ; vertical-align: baseline&quot;&gt;handled wireframe and user flow diagram design and focus group interview (UI/UX);&amp;nbsp;&lt;/span&gt;&lt;/span&gt;&lt;span id=&quot;docs-internal-guid-f10ed9bb-7fff-533c-6e09-c285ab2a279d&quot;&gt;&lt;span style=&quot;font-size: 11pt ; font-family: &amp;#34;arial&amp;#34; ; background-color: transparent ; vertical-align: baseline&quot;&gt;Helped with schema creation(Mongo);&amp;nbsp;&lt;/span&gt;&lt;/span&gt;&lt;span id=&quot;docs-internal-guid-cb5510bf-7fff-7b14-0b06-ce71809f8121&quot;&gt;&lt;span style=&quot;font-size: 11pt ; font-family: &amp;#34;arial&amp;#34; ; background-color: transparent ; vertical-align: baseline&quot;&gt;Helped with DB connection (Express)&lt;/span&gt;&lt;/span&gt;" style="rounded=1;whiteSpace=wrap;html=1;strokeWidth=2;fillWeight=4;hachureGap=8;hachureAngle=45;sketch=1;fontFamily=Courier New;fontSize=25;fillStyle=solid;" parent="MFCvbXzC6i8i3z5e1wY2-27" vertex="1">
          <mxGeometry x="170" y="10" width="530" height="100" as="geometry" />
        </mxCell>
        <mxCell id="MFCvbXzC6i8i3z5e1wY2-30" value="" style="group" parent="1" vertex="1" connectable="0">
          <mxGeometry x="220" y="810" width="700" height="120" as="geometry" />
        </mxCell>
        <mxCell id="MFCvbXzC6i8i3z5e1wY2-31" value="Zain" style="rhombus;whiteSpace=wrap;html=1;strokeWidth=2;fillWeight=-1;hachureGap=8;fillStyle=cross-hatch;fillColor=#dae8fc;sketch=1;strokeColor=#6c8ebf;fontFamily=Courier New;fontSize=25;fontStyle=1" parent="MFCvbXzC6i8i3z5e1wY2-30" vertex="1">
          <mxGeometry width="170" height="120" as="geometry" />
        </mxCell>
        <mxCell id="MFCvbXzC6i8i3z5e1wY2-32" value="&lt;span id=&quot;docs-internal-guid-a01ff617-7fff-93a3-2617-1aa5015412d5&quot;&gt;&lt;span style=&quot;font-size: 11pt ; font-family: &amp;#34;arial&amp;#34; ; background-color: transparent ; vertical-align: baseline&quot;&gt;handled angular and page structuring. Handled logic for quiz page and formatting. Helped with meal summary modal window. Handled game end configuration (Angular);&amp;nbsp;&lt;/span&gt;&lt;/span&gt;&lt;span id=&quot;docs-internal-guid-9e172efd-7fff-0b97-0172-4db9dc6f06fa&quot;&gt;&lt;span style=&quot;font-size: 11pt ; font-family: &amp;#34;arial&amp;#34; ; background-color: transparent ; vertical-align: baseline&quot;&gt;handled initial prototype creation (UX/UI);&amp;nbsp;&lt;/span&gt;&lt;/span&gt;" style="rounded=1;whiteSpace=wrap;html=1;strokeWidth=2;fillWeight=4;hachureGap=8;hachureAngle=45;sketch=1;fontFamily=Courier New;fontSize=25;fillStyle=solid;" parent="MFCvbXzC6i8i3z5e1wY2-30" vertex="1">
          <mxGeometry x="170" y="10" width="530" height="100" as="geometry" />
        </mxCell>
      </root>
    </mxGraphModel>
  </diagram>
</mxfile>
